<?xml version="1.0" standalone="no"?><!DOCTYPE svg PUBLIC "-//W3C//DTD SVG 1.1//EN" "http://www.w3.org/Graphics/SVG/1.1/DTD/svg11.dtd"><svg t="1553332585187" class="icon" style="" viewBox="0 0 1024 1024" version="1.1" xmlns="http://www.w3.org/2000/svg" p-id="3226" xmlns:xlink="http://www.w3.org/1999/xlink" width="200" height="200"><defs><style type="text/css"></style></defs><path d="M232.106667 232.106667a355.541333 355.541333 0 0 1 531.242666 470.912l161.237334 161.194666a42.666667 42.666667 0 1 1-60.373334 60.373334l-189.568-189.610667a42.666667 42.666667 0 0 1 0-60.330667 270.208 270.208 0 1 0-92.8 60.714667 42.666667 42.666667 0 1 1 30.976 79.488A355.626667 355.626667 0 0 1 232.149333 232.149333z" fill="#7f8c8d" p-id="3227"></path><path d="M489.088 382.378667a106.666667 106.666667 0 0 0-106.666667 106.666666 42.666667 42.666667 0 0 1-85.333333 0 192 192 0 0 1 192-192 42.666667 42.666667 0 0 1 0 85.333334z" fill="#7f8c8d" p-id="3228"></path></svg>