<?xml version="1.0" standalone="no"?><!DOCTYPE svg PUBLIC "-//W3C//DTD SVG 1.1//EN" "http://www.w3.org/Graphics/SVG/1.1/DTD/svg11.dtd"><svg t="1547023067459" class="icon" style="" viewBox="0 0 1024 1024" version="1.1" xmlns="http://www.w3.org/2000/svg" p-id="2004" xmlns:xlink="http://www.w3.org/1999/xlink" width="200" height="200"><defs><style type="text/css"></style></defs><path d="M249.173333 335.872c0 10.922667 4.437333 21.504 11.946667 29.013333 7.509333 7.509333 18.432 11.946667 29.013333 11.946667 10.922667 0 21.504-4.437333 29.013333-11.946667 7.509333-7.509333 11.946667-18.432 11.946667-29.013333 0-10.922667-4.437333-21.504-11.946667-29.013333-7.509333-7.509333-18.432-11.946667-29.013333-11.946667-10.922667 0-21.504 4.437333-29.013333 11.946667C253.610667 314.368 249.173333 325.290667 249.173333 335.872L249.173333 335.872zM249.173333 335.872" p-id="2005" fill="#ffffff"></path><path d="M569.344 548.864c0 8.533333 3.413333 16.725333 9.557333 22.869333 5.802667 5.802667 14.336 9.557333 22.869333 9.557333 8.533333 0 16.725333-3.413333 22.869333-9.557333 5.802667-5.802667 9.557333-14.336 9.557333-22.869333 0-8.533333-3.413333-16.725333-9.557333-22.869333-5.802667-5.802667-14.336-9.557333-22.869333-9.557333-8.533333 0-16.725333 3.413333-22.869333 9.557333C573.098667 531.797333 569.344 540.330667 569.344 548.864L569.344 548.864zM569.344 548.864" p-id="2006" fill="#ffffff"></path><path d="M459.093333 335.872c0 10.922667 4.437333 21.504 11.946667 29.013333 7.509333 7.509333 18.432 11.946667 29.013333 11.946667 10.922667 0 21.504-4.437333 29.013333-11.946667 7.509333-7.509333 11.946667-18.432 11.946667-29.013333 0-10.922667-4.437333-21.504-11.946667-29.013333-7.509333-7.509333-18.432-11.946667-29.013333-11.946667-10.922667 0-21.504 4.437333-29.013333 11.946667C463.530667 314.368 459.093333 325.290667 459.093333 335.872L459.093333 335.872zM459.093333 335.872" p-id="2007" fill="#ffffff"></path><path d="M842.069333 27.306667 181.930667 27.306667C94.549333 27.306667 23.893333 98.304 23.893333 186.026667l0 659.456c0 87.722667 70.997333 158.72 158.378667 158.72l660.138667 0c87.381333 0 158.378667-70.997333 158.378667-158.72L1000.789333 186.026667C1000.448 98.304 929.450667 27.306667 842.069333 27.306667L842.069333 27.306667zM390.144 681.642667c-36.864 0-66.56-7.509333-103.765333-15.018667l-103.424 51.882667 29.696-89.088c-74.069333-51.882667-118.442667-118.442667-118.442667-200.021333 0-140.970667 133.461333-251.904 296.277333-251.904 145.749333 0 273.066667 88.746667 298.666667 207.872-9.557333-1.024-18.773333-1.706667-28.672-1.706667-140.629333 0-251.904 105.130667-251.904 234.496 0 21.504 3.413333 42.325333 9.216 62.122667C408.917333 681.301333 399.701333 681.642667 390.144 681.642667L390.144 681.642667zM827.050667 785.408l22.186667 74.069333-81.237333-44.373333c-29.696 7.509333-59.392 15.018667-88.746667 15.018667-140.970667 0-251.904-96.256-251.904-215.04 0-118.442667 110.933333-215.04 251.904-215.04 133.12 0 251.562667 96.597333 251.562667 215.04C930.816 681.642667 886.442667 741.034667 827.050667 785.408L827.050667 785.408zM827.050667 785.408" p-id="2008" fill="#ffffff"></path><path d="M730.794667 548.864c0 8.533333 3.413333 16.725333 9.557333 22.869333 5.802667 5.802667 14.336 9.557333 22.869333 9.557333 8.533333 0 16.725333-3.413333 22.869333-9.557333 5.802667-5.802667 9.557333-14.336 9.557333-22.869333 0-8.533333-3.413333-16.725333-9.557333-22.869333-5.802667-5.802667-14.336-9.557333-22.869333-9.557333-8.533333 0-16.725333 3.413333-22.869333 9.557333C734.208 531.797333 730.794667 540.330667 730.794667 548.864L730.794667 548.864zM730.794667 548.864" p-id="2009" fill="#ffffff"></path></svg>